HIERARCHY
ROOT Hips
{
	OFFSET 38.668098 -4.359876 98.826797
	CHANNELS 6 Xposition Yposition Zposition Xrotation Yrotation Zrotation
	JOINT spine
	{
		OFFSET 0.000000 -0.477353 8.301041
		CHANNELS 3 Xrotation Yrotation Zrotation
		JOINT spine1
		{
			OFFSET 0.000000 -0.000001 10.456497
			CHANNELS 3 Xrotation Yrotation Zrotation
			JOINT spine2
			{
				OFFSET 0.000000 -0.000002 10.019203
				CHANNELS 3 Xrotation Yrotation Zrotation
				JOINT Neck
				{
					OFFSET 0.000000 -1.226414 25.723503
					CHANNELS 3 Xrotation Yrotation Zrotation
					JOINT Head
					{
						OFFSET 0.000000 -0.000001 7.771744
						CHANNELS 3 Xrotation Yrotation Zrotation
						End Site
						{
							OFFSET 0.000000 6.203937 18.811996
						}
					}
				}
				JOINT RightShoulder
				{
					OFFSET -4.218800 0.587438 10.820000
					CHANNELS 3 Xrotation Yrotation Zrotation
					JOINT RightArm
					{
						OFFSET 0.000000 -0.000002 14.191406
						CHANNELS 3 Xrotation Yrotation Zrotation
						JOINT RightArmRoll
						{
							OFFSET 0.000000 -0.000001 7.164093
							CHANNELS 3 Xrotation Yrotation Zrotation
							JOINT RightForeArm
							{
								OFFSET 0.000000 -0.000003 20.866501
								CHANNELS 3 Xrotation Yrotation Zrotation
								JOINT RightForeArmRoll
								{
									OFFSET 0.000000 -0.000001 8.039215
									CHANNELS 3 Xrotation Yrotation Zrotation
									JOINT RightHand
									{
										OFFSET 0.000000 -0.000003 16.132996
										CHANNELS 3 Xrotation Yrotation Zrotation
										End Site
										{
											OFFSET 0.000000 0.000000 0.100006
										}
									}
								}
							}
						}
					}
				}
				JOINT LeftShoulder
				{
					OFFSET 4.218800 0.587438 10.820000
					CHANNELS 3 Xrotation Yrotation Zrotation
					JOINT LeftArm
					{
						OFFSET 0.000000 -0.000002 14.191406
						CHANNELS 3 Xrotation Yrotation Zrotation
						JOINT LeftArmRoll
						{
							OFFSET 0.000000 -0.000001 7.164093
							CHANNELS 3 Xrotation Yrotation Zrotation
							JOINT LeftForeArm
							{
								OFFSET 0.000000 -0.000003 20.866501
								CHANNELS 3 Xrotation Yrotation Zrotation
								JOINT LeftForeArmRoll
								{
									OFFSET 0.000000 -0.000001 8.039215
									CHANNELS 3 Xrotation Yrotation Zrotation
									JOINT LeftHand
									{
										OFFSET 0.000000 -0.000003 16.132996
										CHANNELS 3 Xrotation Yrotation Zrotation
										End Site
										{
											OFFSET 0.000000 0.000000 0.100006
										}
									}
								}
							}
						}
					}
				}
			}
		}
	}
	JOINT RightUpLeg
	{
		OFFSET -7.357731 1.131820 -1.349213
		CHANNELS 3 Xrotation Yrotation Zrotation
		JOINT RightUpLegRoll
		{
			OFFSET 0.000000 -0.000003 18.916801
			CHANNELS 3 Xrotation Yrotation Zrotation
			JOINT RightLeg
			{
				OFFSET 0.000000 0.000004 -23.425598
				CHANNELS 3 Xrotation Yrotation Zrotation
				JOINT RightLegRoll
				{
					OFFSET 0.000000 -0.000004 23.502296
					CHANNELS 3 Xrotation Yrotation Zrotation
					JOINT RightFoot
					{
						OFFSET 0.000000 -0.000003 19.561707
						CHANNELS 3 Xrotation Yrotation Zrotation
						JOINT RightToeBase
						{
							OFFSET 0.000000 -0.000003 16.352600
							CHANNELS 3 Xrotation Yrotation Zrotation
							End Site
							{
								OFFSET 0.006931 0.912836 7.919434
							}
						}
					}
				}
			}
		}
	}
	JOINT LeftUpLeg
	{
		OFFSET 7.357731 1.131820 -1.349213
		CHANNELS 3 Xrotation Yrotation Zrotation
		JOINT LeftUpLegRoll
		{
			OFFSET 0.000000 -0.000003 18.916901
			CHANNELS 3 Xrotation Yrotation Zrotation
			JOINT LeftLeg
			{
				OFFSET 0.000000 -0.000004 23.425507
				CHANNELS 3 Xrotation Yrotation Zrotation
				JOINT LeftLegRoll
				{
					OFFSET 0.000000 -0.000004 23.719498
					CHANNELS 3 Xrotation Yrotation Zrotation
					JOINT LeftFoot
					{
						OFFSET 0.000000 -0.000003 19.344406
						CHANNELS 3 Xrotation Yrotation Zrotation
						JOINT LeftToeBase
						{
							OFFSET 0.000000 -0.000003 16.352600
							CHANNELS 3 Xrotation Yrotation Zrotation
							End Site
							{
								OFFSET -0.031063 0.912835 7.919434
							}
						}
					}
				}
			}
		}
	}
}
MOTION
Frames: 5
Frame Time: 0.041667
39.034798 -3.951454 98.793205 -1.563730 -0.619120 0.260808 -1.909096 0.128037 0.201624 0.184197 0.249793 0.412175 1.829259 0.254623 0.409300 33.889121 -0.692640 -1.683448 -17.124386 1.540181 -1.677370 -12.880894 -32.530733 -13.947586 -130.467965 -174.294243 -74.943397 -0.000000 0.000004 -0.000001 112.283133 4.123891 14.925481 -0.000003 0.000010 -3.002988 -5.000187 -7.999103 0.000129 5.896816 68.397651 -5.410154 -58.183390 104.143487 39.330862 -0.000000 -0.000000 0.000001 2.390883 9.541411 0.340269 0.000003 -0.000007 3.000000 -5.000222 7.998843 -0.000136 -0.237643 -175.870022 0.788976 -179.999991 0.000005 -1.071993 174.039695 -3.413492 -0.651171 -0.000002 -0.000002 0.067090 68.912415 6.884632 2.159527 25.456959 -7.355616 0.000001 0.681586 176.374240 1.576766 -0.000005 -0.000004 -1.146000 -7.987838 3.025751 0.887569 -0.000005 -0.000001 -0.089977 68.384687 -6.928032 -2.081609 25.456953 7.355613 -0.000000 
39.031998 -3.947183 98.793602 -1.565660 -0.614767 0.262328 -1.906245 0.127046 0.202212 0.189899 0.248856 0.412136 1.834958 0.253694 0.409289 33.859044 -0.683174 -1.682505 -17.096536 1.535938 -1.675463 -12.881580 -32.555905 -13.949919 -130.479385 -174.235653 -75.009971 0.000003 0.000004 0.000000 112.664216 4.065901 14.983850 -0.000004 0.000013 -3.002989 -5.000187 -7.999101 0.000127 5.864022 68.383041 -5.375870 -58.084489 104.174086 39.254429 0.000000 -0.000001 -0.000001 2.401987 9.548678 0.339246 0.000000 -0.000007 3.000001 -5.000224 7.998842 -0.000136 -0.228483 -175.876046 0.788902 -179.999991 0.000005 -1.071993 174.055664 -3.417573 -0.650634 -0.000003 -0.000002 0.067077 68.903474 6.884706 2.159597 25.456957 -7.355619 0.000001 0.676360 176.368243 1.575345 -0.000005 -0.000004 -1.145980 -7.998298 3.023792 0.888686 -0.000004 -0.000001 -0.090019 68.391832 -6.927964 -2.081448 25.456955 7.355613 0.000000 
39.034901 -3.945324 98.793411 -1.567707 -0.610433 0.263898 -1.903403 0.126014 0.202765 0.195563 0.247782 0.412121 1.840628 0.252629 0.409300 33.827110 -0.678593 -1.680297 -17.066257 1.539151 -1.672645 -12.881705 -32.581317 -13.951607 -130.490354 -174.174646 -75.080445 -0.000001 0.000006 0.000000 113.038804 4.009783 15.037476 -0.000005 0.000012 -3.002989 -5.000188 -7.999103 0.000127 5.833401 68.368766 -5.343941 -57.986612 104.204037 39.178894 -0.000000 0.000000 0.000002 2.413329 9.556055 0.338169 0.000001 -0.000007 3.000001 -5.000224 7.998843 -0.000136 -0.219206 -175.881032 0.788795 -179.999991 0.000005 -1.071993 174.071619 -3.420647 -0.649992 -0.000003 -0.000002 0.067062 68.894732 6.884722 2.159743 25.456964 -7.355619 0.000001 0.671163 176.363243 1.573646 -0.000005 -0.000004 -1.145960 -8.009033 3.022089 0.889740 -0.000005 -0.000001 -0.090072 68.398853 -6.927853 -2.081386 25.456959 7.355613 -0.000000 
39.035194 -3.946594 98.790710 -1.569836 -0.606152 0.265542 -1.900634 0.124930 0.203267 0.201104 0.246529 0.412130 1.846168 0.251382 0.409333 33.794007 -0.679275 -1.676738 -17.033829 1.550605 -1.668840 -12.881258 -32.606896 -13.952410 -130.500395 -174.110866 -75.154989 -0.000003 0.000004 -0.000001 113.406521 3.955879 15.087220 -0.000005 0.000012 -3.002990 -5.000186 -7.999103 0.000132 5.806444 68.355345 -5.315960 -57.891939 104.232758 39.106364 -0.000001 -0.000001 -0.000002 2.425034 9.563597 0.337016 0.000003 -0.000007 3.000000 -5.000223 7.998845 -0.000135 -0.209858 -175.886032 0.788655 -179.999991 0.000005 -1.071993 174.087438 -3.423735 -0.649356 -0.000003 -0.000002 0.067047 68.886105 6.884812 2.159797 25.456962 -7.355618 0.000001 0.666014 176.358230 1.571635 -0.000005 -0.000004 -1.145940 -8.019998 3.020710 0.890711 -0.000005 -0.000001 -0.090138 68.405676 -6.927764 -2.081240 25.456959 7.355613 0.000000 
39.035698 -3.943065 98.791405 -1.572047 -0.601958 0.267284 -1.897976 0.123781 0.203702 0.206436 0.245050 0.412164 1.851498 0.249911 0.409393 33.760259 -0.685605 -1.671737 -16.999791 1.571133 -1.663974 -12.879804 -32.632086 -13.951763 -130.509288 -174.043943 -75.234220 0.000002 0.000004 -0.000000 113.766991 3.904502 15.133066 -0.000004 0.000010 -3.002990 -5.000187 -7.999103 0.000128 5.784756 68.343351 -5.293622 -57.801036 104.259539 39.037041 0.000000 0.000001 0.000001 2.437218 9.571397 0.335773 0.000001 -0.000007 3.000000 -5.000225 7.998843 -0.000135 -0.200485 -175.891032 0.788476 -179.999991 0.000005 -1.071993 174.103107 -3.426821 -0.648729 -0.000003 -0.000002 0.067030 68.877690 6.884877 2.159934 25.456957 -7.355618 0.000001 0.660920 176.352247 1.569259 -0.000005 -0.000004 -1.145920 -8.031175 3.019687 0.891576 -0.000005 -0.000001 -0.090217 68.412069 -6.927677 -2.081123 25.456957 7.355613 0.000001 
